<?xml version="1.0" encoding="utf-8"?><svg version="1.1" id="Layer_1" xmlns="http://www.w3.org/2000/svg" xmlns:xlink="http://www.w3.org/1999/xlink" x="0px" y="0px" width="121.014px" height="122.878px" viewBox="0 0 121.014 122.878" enable-background="new 0 0 121.014 122.878" xml:space="preserve"><g><path fill-rule="evenodd" clip-rule="evenodd" d="M63.769,3.827l54.715,59.579c3.695,4.021,3.272,10.385-0.802,14.019 l-48.172,42.95c-4.069,3.63-10.388,3.27-14.018-0.805L4.112,61.934l0.098-1.699L0,0l61.944,3.922 C62.54,3.881,63.147,3.849,63.769,3.827L63.769,3.827z M24.269,11.894c6.141,0.136,11.013,5.227,10.877,11.368 c-0.136,6.142-5.227,11.013-11.368,10.877c-6.141-0.136-11.013-5.227-10.877-11.368C13.036,16.629,18.127,11.758,24.269,11.894 L24.269,11.894z M33.948,53.765l35.36,38.527l-7.048,6.472L26.9,60.233L33.948,53.765L33.948,53.765z M63.797,26.51L99.16,65.04 l-7.052,6.468l-35.36-38.527L63.797,26.51L63.797,26.51z M49.586,39.811l35.363,38.527l-7.052,6.469L42.538,46.279L49.586,39.811 L49.586,39.811z"/></g></svg>